<svg xmlns="http://www.w3.org/2000/svg" viewBox="0 0 1600 460"><defs><linearGradient id="sky" x1="0" y1="0" x2="1" y2="1"><stop stop-color="#ddecf8"/><stop offset=".5" stop-color="#9fc5e1"/><stop offset="1" stop-color="#f2c8a5"/></linearGradient><linearGradient id="case" x1="0" y1="0" x2="1" y2="1"><stop stop-color="#21384f"/><stop offset="1" stop-color="#0d1e30"/></linearGradient></defs><rect width="1600" height="460" fill="url(#sky)"/><path d="M0 333 C290 299 510 336 780 316 S1230 301 1600 322V460H0z" fill="#6fa3c7" opacity=".72"/><g fill="#2f5f82" opacity=".72"><rect x="860" y="187" width="34" height="132"/><rect x="910" y="131" width="45" height="188"/><rect x="972" y="205" width="32" height="114"/><rect x="1022" y="92" width="47" height="227"/><rect x="1082" y="177" width="36" height="142"/><rect x="1130" y="145" width="50" height="174"/><rect x="1196" y="203" width="33" height="116"/></g><g transform="translate(810 39)"><rect x="20" y="73" width="10" height="216" fill="#19476e"/><circle cx="25" cy="122" r="35" fill="#b54a45"/><circle cx="25" cy="122" r="25" fill="#e7a09a"/><circle cx="25" cy="198" r="24" fill="#a63738"/><path d="M25 0 12 76h26z" fill="#19476e"/><rect x="9" y="225" width="32" height="64" fill="#19476e"/></g><g transform="translate(1160 124)"><rect x="54" y="0" width="108" height="67" rx="19" fill="none" stroke="#1b3148" stroke-width="14"/><rect x="0" y="59" width="216" height="261" rx="24" fill="url(#case)"/><rect x="22" y="82" width="172" height="202" rx="16" fill="#18304a"/><circle cx="39" cy="329" r="12" fill="#0b1724"/><circle cx="177" cy="329" r="12" fill="#0b1724"/><rect x="122" y="109" width="67" height="103" rx="8" fill="#d94743" transform="rotate(6 155 160)"/><text x="155" y="147" text-anchor="middle" font-family="Arial" font-size="18" fill="#fff" font-weight="700">CHINA</text><path d="M156 158c17 9 21 20 23 33-14-5-24-10-31-18-7 8-16 13-28 18 3-13 8-24 22-33l7-23z" fill="#fff"/></g><g transform="translate(530 80) rotate(-8)"><path d="M0 57 260 0l72 16-117 53 103 30-20 15-131-27-54 26-23-9 39-31L12 67z" fill="#e9f5fb" stroke="#5b88a7" stroke-width="3"/></g></svg>