<svg xmlns="http://www.w3.org/2000/svg" viewBox="0 0 1600 460" role="img" aria-labelledby="title desc"><title id="title">Шанхай и автомобильная отрасль</title><desc id="desc">Корпоративная иллюстрация горизонта Шанхая, дороги и автомобиля</desc><defs><linearGradient id="sky" x1="0" y1="0" x2="1" y2="1"><stop stop-color="#16385e"/><stop offset=".48" stop-color="#4f8fc8"/><stop offset=".72" stop-color="#d7e7f4"/><stop offset="1" stop-color="#f6c9a3"/></linearGradient><linearGradient id="river" x1="0" y1="0" x2="0" y2="1"><stop stop-color="#76afd4"/><stop offset="1" stop-color="#17466d"/></linearGradient><linearGradient id="road" x1="0" y1="0" x2="1" y2="0"><stop stop-color="#17283d"/><stop offset=".55" stop-color="#314b66"/><stop offset="1" stop-color="#16283a"/></linearGradient><linearGradient id="car" x1="0" y1="0" x2="1" y2="1"><stop stop-color="#1b3551"/><stop offset=".45" stop-color="#5e87a6"/><stop offset="1" stop-color="#102237"/></linearGradient><filter id="soft"><feGaussianBlur stdDeviation="8"/></filter></defs><rect width="1600" height="460" fill="url(#sky)"/><circle cx="1130" cy="88" r="70" fill="#ffd6b2" opacity=".5" filter="url(#soft)"/><path d="M0 330 C240 295 430 335 650 314 S1040 300 1600 320 V460 H0Z" fill="url(#river)" opacity=".84"/><g fill="#204c72" opacity=".88"><rect x="760" y="198" width="32" height="122" rx="2"/><rect x="800" y="164" width="48" height="156" rx="2"/><rect x="856" y="214" width="31" height="106"/><rect x="900" y="122" width="48" height="198"/><rect x="959" y="190" width="35" height="130"/><rect x="1012" y="78" width="44" height="242"/><rect x="1068" y="178" width="34" height="142"/><rect x="1116" y="102" width="49" height="218"/><rect x="1174" y="146" width="42" height="174"/><rect x="1230" y="190" width="34" height="130"/><rect x="1274" y="160" width="55" height="160"/><rect x="1342" y="208" width="32" height="112"/></g><g fill="#d7f1ff" opacity=".55"><path d="M1006 78h56l-13-16h-30z"/><path d="M1112 102h58l-12-17h-36z"/></g><g transform="translate(886 32)"><rect x="20" y="73" width="10" height="216" fill="#163f69"/><circle cx="25" cy="122" r="35" fill="#b84b46"/><circle cx="25" cy="122" r="25" fill="#e9a29a"/><circle cx="25" cy="198" r="24" fill="#a9383a"/><path d="M25 0 12 76h26z" fill="#163f69"/><rect x="9" y="225" width="32" height="64" fill="#163f69"/></g><path d="M0 404 C270 354 490 363 715 375 C1000 391 1290 345 1600 332 V460H0Z" fill="url(#road)"/><path d="M180 430 C500 392 805 408 1180 365" fill="none" stroke="#eaf4fb" stroke-width="7" stroke-dasharray="62 35" opacity=".88"/><path d="M495 414 C780 382 1022 388 1400 344" fill="none" stroke="#80c8ee" stroke-width="3" opacity=".48"/><g transform="translate(1190 225)"><ellipse cx="188" cy="174" rx="205" ry="18" fill="#09192a" opacity=".38" filter="url(#soft)"/><path d="M34 138c13-43 41-75 84-88l133-18c45-2 83 15 113 55l39 51c11 15 14 34 9 50H12c-5-17 2-35 22-50z" fill="url(#car)"/><path d="m123 58 103-14c35 0 66 12 89 43H96c6-12 15-21 27-29z" fill="#9fd5ee" opacity=".72"/><path d="M31 144h57l21 31H18z" fill="#e7f7ff" opacity=".9"/><path d="M346 137h50l18 29h-74z" fill="#78c9f3"/><circle cx="112" cy="188" r="38" fill="#0d1621"/><circle cx="112" cy="188" r="19" fill="#8aa4b8"/><circle cx="333" cy="188" r="38" fill="#0d1621"/><circle cx="333" cy="188" r="19" fill="#8aa4b8"/></g><rect width="1600" height="460" fill="url(#fade)" opacity="0"/></svg>